<svg width="613" height="129" viewBox="0 0 613 129" fill="none" xmlns="http://www.w3.org/2000/svg">
<path d="M16.8075 104.136C11.6022 104.136 7.67683 103.283 5.0315 101.576C2.38617 99.8693 1.02083 97.0533 0.9355 93.128C0.9355 92.2747 1.40483 91.848 2.3435 91.848C3.1115 91.848 4.2635 92.0613 5.7995 92.488C7.42083 92.8293 10.4502 93 14.8875 93C22.3968 93 29.3088 92.232 35.6235 90.696C41.9382 89.0747 47.3995 86.9413 52.0075 84.296C56.7008 81.5653 60.3275 78.536 62.8875 75.208C65.4475 71.7947 66.7275 68.2533 66.7275 64.584C66.7275 61.256 65.7035 58.6107 63.6555 56.648C61.6928 54.6 59.0475 53.064 55.7195 52.04C52.4768 50.9307 48.8928 50.2053 44.9675 49.864C41.1275 49.5227 37.3302 49.352 33.5755 49.352C31.9542 49.352 30.3328 49.3947 28.7115 49.48C27.0902 49.48 25.5542 49.48 24.1035 49.48C22.2262 55.9653 20.3915 62.664 18.5995 69.576C16.8075 76.488 14.9302 83.272 12.9675 89.928C10.4075 89.928 8.18883 89.2453 6.3115 87.88C4.43417 86.5147 3.4955 84.8507 3.4955 82.888C3.4955 82.12 3.6235 81.1387 3.8795 79.944C4.22083 78.664 4.69017 77.1707 5.2875 75.464C5.7995 73.8427 6.65283 71.1547 7.8475 67.4C9.1275 63.6453 10.6208 59.208 12.3275 54.088C14.0342 48.968 15.9115 43.592 17.9595 37.96C20.0928 32.2427 22.2688 26.6533 24.4875 21.192C26.7915 15.7307 29.0528 10.824 31.2715 6.47199C27.8582 7.23999 25.0422 8.13599 22.8235 9.16C20.6048 10.184 18.8555 11.08 17.5755 11.848C16.2955 12.616 15.3142 13 14.6315 13C14.1195 13 13.4368 12.7013 12.5835 12.104C11.8155 11.5067 11.0902 10.824 10.4075 10.056C9.81017 9.288 9.5115 8.60533 9.5115 8.008C14.1195 6.13066 18.8982 4.46666 23.8475 3.016C28.7968 1.56533 34.7702 0.839996 41.7675 0.839996C44.8395 0.839996 48.2102 1.096 51.8795 1.60799C55.5488 2.03466 59.0475 2.97333 62.3755 4.424C65.7035 5.78933 68.4342 7.87999 70.5675 10.696C72.7862 13.4267 73.8955 17.096 73.8955 21.704C73.8955 25.3733 73.0848 28.5733 71.4635 31.304C69.9275 33.9493 67.8368 36.2533 65.1915 38.216C62.5462 40.0933 59.6448 41.672 56.4875 42.952C53.3302 44.1467 50.2155 45.128 47.1435 45.896C52.4342 46.5787 56.8288 47.688 60.3275 49.224C63.9115 50.6747 66.7275 52.3813 68.7755 54.344C70.9088 56.3067 72.4022 58.3547 73.2555 60.488C74.1942 62.536 74.6635 64.5413 74.6635 66.504C74.6635 71.5387 73.3408 76.0613 70.6955 80.072C68.0502 84.0827 64.5515 87.5813 60.1995 90.568C55.9328 93.5547 51.1968 96.0293 45.9915 97.992C40.8715 100.04 35.7515 101.576 30.6315 102.6C25.5115 103.624 20.9035 104.136 16.8075 104.136ZM25.3835 44.616C30.1622 44.4453 34.8555 43.8907 39.4635 42.952C44.0715 42.0133 48.2102 40.648 51.8795 38.856C55.6342 36.9787 58.6208 34.5893 60.8395 31.688C63.0582 28.7013 64.1675 25.032 64.1675 20.68C64.1675 16.584 63.0582 13.4267 60.8395 11.208C58.6208 8.98933 55.7195 7.45333 52.1355 6.6C48.5515 5.74666 44.7115 5.31999 40.6155 5.31999C40.5302 5.31999 40.4448 5.31999 40.3595 5.31999C40.2742 5.31999 40.1888 5.31999 40.1035 5.31999C37.2022 11.0373 34.5568 17.2667 32.1675 24.008C29.7782 30.664 27.5168 37.5333 25.3835 44.616ZM87.3855 97.096C83.5455 97.096 80.9002 95.816 79.4495 93.256C78.0842 90.7813 77.4015 88.0507 77.4015 85.064C77.4015 82.3333 77.8282 79.56 78.6815 76.744C79.5348 73.8427 80.6868 71.1547 82.1375 68.68C83.6735 66.2053 85.3375 64.2427 87.1295 62.792C89.0068 61.256 90.8842 60.488 92.7615 60.488C93.3588 60.488 94.0415 60.616 94.8095 60.872C95.6628 61.0427 96.2602 61.3413 96.6015 61.768C95.5775 63.048 94.5108 64.6267 93.4015 66.504C92.3775 68.3813 91.3962 70.3867 90.4575 72.52C89.6042 74.568 88.9215 76.6587 88.4095 78.792C87.8975 80.9253 87.6415 82.888 87.6415 84.68C87.6415 86.3867 87.9402 87.7947 88.5375 88.904C89.2202 90.0133 90.3722 90.568 91.9935 90.568C93.6148 90.568 95.5348 89.672 97.7535 87.88C100.058 86.0027 102.234 83.8693 104.282 81.48C101.551 79.0053 99.5882 76.3173 98.3935 73.416C97.1988 70.4293 96.6015 66.8453 96.6015 62.664C96.6015 60.872 97.0282 58.824 97.8815 56.52C98.8202 54.216 100.271 52.2107 102.234 50.504C104.282 48.7973 107.012 47.944 110.426 47.944C114.095 47.944 116.655 48.968 118.106 51.016C119.642 53.064 120.41 55.496 120.41 58.312C120.41 61.4693 119.556 65.0107 117.85 68.936C116.228 72.8613 114.266 76.5733 111.962 80.072C112.986 80.584 114.18 80.84 115.546 80.84C116.826 80.84 118.362 80.5413 120.154 79.944C121.946 79.3467 123.695 78.3653 125.402 77C127.108 75.5493 128.474 73.6293 129.498 71.24L131.802 72.904C129.924 77.256 127.407 80.456 124.25 82.504C121.178 84.4667 118.148 85.448 115.162 85.448C114.052 85.448 112.943 85.3627 111.833 85.192C110.724 84.936 109.7 84.6373 108.762 84.296C105.86 87.7093 102.532 90.696 98.7775 93.256C95.0228 95.816 91.2255 97.096 87.3855 97.096ZM107.61 77.384C109.658 74.3973 111.407 71.1973 112.858 67.784C114.308 64.3707 115.034 61.2133 115.034 58.312C115.034 56.3493 114.735 54.9413 114.138 54.088C113.54 53.1493 112.644 52.68 111.45 52.68C109.828 52.68 108.164 53.832 106.458 56.136C104.751 58.44 103.898 61.3413 103.898 64.84C103.898 66.632 104.196 68.808 104.794 71.368C105.476 73.928 106.415 75.9333 107.61 77.384ZM193.507 96.968C190.179 96.968 187.704 95.9867 186.083 94.024C184.461 92.0613 183.651 89.7147 183.651 86.984C183.651 85.0213 183.949 83.0587 184.547 81.096C185.144 79.1333 185.741 77.2133 186.339 75.336C186.936 73.3733 187.235 71.624 187.235 70.088C187.235 68.6373 186.936 67.656 186.339 67.144C185.827 66.5467 185.144 66.248 184.291 66.248C182.328 66.248 180.024 67.7413 177.379 70.728C174.819 73.7147 171.619 78.0667 167.779 83.784C166.413 85.832 165.133 88.008 163.939 90.312C162.744 92.5307 161.677 94.408 160.739 95.944C159.971 95.944 158.947 95.816 157.667 95.56C156.472 95.304 155.405 94.92 154.467 94.408C153.528 93.9813 153.059 93.384 153.059 92.616C153.059 91.848 153.485 90.3547 154.339 88.136C155.192 85.9173 156.173 83.3573 157.283 80.456C158.392 77.4693 159.373 74.568 160.227 71.752C161.08 68.8507 161.507 66.4187 161.507 64.456C161.507 63.2613 161.293 62.3227 160.867 61.64C160.44 60.9573 159.757 60.616 158.819 60.616C157.027 60.616 154.851 61.6827 152.291 63.816C149.816 65.9493 147.171 68.7653 144.355 72.264C141.624 75.6773 139.021 79.5173 136.547 83.784C134.157 87.9653 132.195 92.1893 130.659 96.456C129.72 96.456 128.568 96.2427 127.203 95.816C125.837 95.4747 124.642 95.0053 123.618 94.408C122.594 93.896 122.082 93.4267 122.082 93C122.082 92.9147 122.381 91.72 122.978 89.416C123.576 87.0267 124.301 84.0827 125.154 80.584C126.008 77.0853 126.904 73.5013 127.843 69.832C128.781 66.1627 129.592 62.9627 130.275 60.232C130.531 59.2933 131.469 58.4827 133.091 57.8C134.712 57.032 136.12 56.648 137.315 56.648C138.509 56.648 139.533 57.032 140.387 57.8C141.24 58.568 141.667 59.592 141.667 60.872C141.667 61.7253 141.496 62.9627 141.155 64.584C140.813 66.2053 140.387 68.04 139.875 70.088C141.667 67.6987 143.544 65.352 145.507 63.048C147.555 60.6587 149.645 58.5253 151.779 56.648C153.997 54.7707 156.173 53.2773 158.307 52.168C160.525 51.0587 162.701 50.504 164.835 50.504C167.992 50.504 170.125 51.656 171.235 53.96C172.344 56.1787 172.899 58.6107 172.899 61.256C172.899 62.3653 172.813 63.4747 172.643 64.584C172.472 65.608 172.216 66.6747 171.875 67.784C171.619 68.808 171.235 70.0453 170.723 71.496C172.344 69.1067 174.093 66.9307 175.971 64.968C177.933 62.92 180.024 61.2987 182.243 60.104C184.461 58.9093 186.808 58.312 189.283 58.312C192.611 58.312 194.915 59.336 196.195 61.384C197.475 63.3467 198.115 65.5227 198.115 67.912C198.115 70.1307 197.731 72.4773 196.963 74.952C196.28 77.3413 195.555 79.6453 194.787 81.864C194.104 83.9973 193.763 85.832 193.763 87.368C193.763 88.2213 193.976 89.032 194.403 89.8C194.829 90.4827 195.683 90.824 196.963 90.824C199.267 90.824 201.485 89.7573 203.619 87.624C205.752 85.4907 207.715 82.888 209.507 79.816C211.384 76.6587 212.963 73.672 214.243 70.856L216.419 73.544C215.053 77.0427 213.261 80.6267 211.043 84.296C208.909 87.88 206.392 90.8667 203.491 93.256C200.589 95.7307 197.261 96.968 193.507 96.968ZM259.289 104.136C256.729 104.136 254.297 103.453 251.993 102.088C249.774 100.723 248.665 98.9733 248.665 96.84C248.665 95.7307 248.835 94.536 249.177 93.256C249.603 91.976 249.987 90.7813 250.329 89.672C252.974 81.5653 255.449 74.0133 257.753 67.016C260.057 59.9333 262.361 53.1493 264.665 46.664C267.054 40.0933 269.529 33.5227 272.089 26.952C274.734 20.3813 277.678 13.512 280.921 6.34399C277.678 7.02666 274.905 7.92266 272.601 9.032C270.297 10.056 268.419 10.9947 266.969 11.848C265.518 12.616 264.451 13 263.769 13C263.342 13 262.702 12.7013 261.849 12.104C261.081 11.5067 260.398 10.824 259.801 10.056C259.203 9.288 258.905 8.60533 258.905 8.008C261.294 6.98399 264.067 5.91733 267.225 4.808C270.467 3.69866 273.966 2.76 277.721 1.992C281.475 1.224 285.23 0.839996 288.985 0.839996C292.995 0.839996 297.091 1.39466 301.273 2.504C305.454 3.52799 309.294 5.10666 312.793 7.24C316.377 9.288 319.235 11.8907 321.369 15.048C323.587 18.12 324.697 21.7467 324.697 25.928C324.697 30.4507 323.673 34.3333 321.625 37.576C319.577 40.8187 316.846 43.5493 313.433 45.768C310.105 47.9867 306.478 49.7787 302.553 51.144C298.627 52.5093 294.702 53.5333 290.777 54.216C286.937 54.8987 283.481 55.368 280.409 55.624C277.337 55.88 275.033 56.008 273.497 56.008H272.729C270.339 64.456 267.993 72.904 265.689 81.352C263.385 89.7147 261.251 97.3093 259.289 104.136ZM273.881 52.04C278.659 51.6987 283.438 50.888 288.217 49.608C292.995 48.328 297.305 46.5787 301.145 44.36C305.07 42.056 308.185 39.1973 310.489 35.784C312.878 32.3707 314.073 28.4027 314.073 23.88C314.073 19.6133 312.921 16.1573 310.617 13.512C308.398 10.8667 305.497 8.86133 301.913 7.49599C298.414 6.13066 294.702 5.40533 290.777 5.31999C287.705 11.2933 284.761 18.376 281.944 26.568C279.129 34.6747 276.441 43.1653 273.881 52.04ZM336.993 96.328C333.835 96.328 331.275 95.4747 329.312 93.768C327.35 92.1467 326.369 89.928 326.369 87.112C326.369 84.7227 326.966 82.1627 328.161 79.432C329.355 76.7013 330.55 74.0133 331.745 71.368C333.025 68.7227 333.665 66.376 333.665 64.328C333.665 62.3653 333.025 60.744 331.745 59.464C330.465 58.0987 328.971 56.9893 327.265 56.136C325.387 60.8293 323.254 65.3947 320.865 69.832C318.561 74.184 316.683 77.5973 315.233 80.072L313.312 76.36C314.507 74.1413 316.086 70.984 318.049 66.888C320.011 62.792 321.889 58.2267 323.681 53.192C322.827 52.3387 322.401 51.1867 322.401 49.736C322.401 47.5173 323.083 45.4267 324.449 43.464C325.814 41.5013 327.137 40.52 328.417 40.52C329.441 40.52 330.166 41.1173 330.593 42.312C331.105 43.4213 331.361 44.1893 331.361 44.616C331.361 45.0427 331.147 45.8107 330.721 46.92C330.379 48.0293 330.123 48.84 329.953 49.352C330.038 50.2907 330.763 51.2293 332.128 52.168C333.579 53.0213 335.201 54.0453 336.993 55.24C338.785 56.4347 340.363 57.928 341.729 59.72C343.094 61.512 343.777 63.7733 343.777 66.504C343.777 68.9787 343.222 71.496 342.113 74.056C341.003 76.616 339.894 79.0053 338.785 81.224C337.675 83.4427 337.121 85.3627 337.121 86.984C337.121 88.1787 337.419 88.9893 338.017 89.416C338.699 89.7573 339.467 89.928 340.321 89.928C342.369 89.928 344.502 89.3307 346.721 88.136C348.939 86.856 351.115 85.2347 353.249 83.272C355.382 81.3093 357.259 79.2613 358.881 77.128C360.502 74.9093 361.739 72.904 362.593 71.112L365.665 73.416C364.043 77.0853 361.697 80.712 358.625 84.296C355.553 87.7947 352.139 90.696 348.385 93C344.63 95.2187 340.833 96.328 336.993 96.328ZM374.661 98.632C369.199 98.632 364.975 97.1387 361.989 94.152C359.087 91.2507 357.636 87.5813 357.636 83.144C357.636 79.3893 358.575 75.4213 360.453 71.24C362.415 66.9733 365.018 63.0053 368.26 59.336C371.503 55.5813 375.087 52.552 379.013 50.248C382.938 47.944 386.863 46.792 390.789 46.792C393.007 46.792 395.098 47.3893 397.061 48.584C399.109 49.6933 400.133 51.9547 400.133 55.368C400.133 58.6107 399.194 61.64 397.317 64.456C395.439 67.272 392.922 69.7893 389.765 72.008C386.607 74.2267 383.109 76.0613 379.269 77.512C375.514 78.8773 371.717 79.7733 367.877 80.2C367.791 80.5413 367.706 80.9253 367.621 81.352C367.621 81.6933 367.621 82.2907 367.621 83.144C367.621 83.5707 367.663 84.3387 367.749 85.448C367.919 86.472 368.303 87.5813 368.901 88.776C369.498 89.9707 370.479 90.9947 371.845 91.848C373.21 92.7013 375.087 93.128 377.477 93.128C381.061 93.128 384.645 92.1467 388.229 90.184C391.898 88.136 395.311 85.448 398.469 82.12C401.711 78.792 404.399 75.08 406.533 70.984L409.093 73.032C406.789 78.152 403.802 82.632 400.133 86.472C396.549 90.312 392.538 93.2987 388.101 95.432C383.749 97.5653 379.269 98.632 374.661 98.632ZM369.285 75.464C371.503 75.208 373.978 74.44 376.708 73.16C379.439 71.88 382.042 70.2587 384.517 68.296C387.077 66.3333 389.167 64.2 390.789 61.896C392.41 59.5067 393.221 57.1173 393.221 54.728C393.221 53.7893 393.05 53.1493 392.708 52.808C392.367 52.4667 391.813 52.296 391.045 52.296C389.082 52.296 387.034 53.0213 384.901 54.472C382.767 55.8373 380.677 57.672 378.628 59.976C376.581 62.1947 374.746 64.6693 373.125 67.4C371.503 70.1307 370.223 72.8187 369.285 75.464ZM396.269 128.84C395.587 128.84 394.861 128.627 394.093 128.2C393.325 127.859 392.685 127.432 392.173 126.92C391.576 126.408 391.235 125.981 391.149 125.64C393.283 119.411 395.117 113.992 396.653 109.384C398.104 104.861 399.341 100.552 400.365 96.456C401.389 92.4453 402.328 88.264 403.181 83.912C403.95 79.4747 404.718 74.44 405.486 68.808C406.339 63.0907 407.278 56.2213 408.302 48.2C408.472 47.176 408.686 46.4507 408.942 46.024C409.198 45.512 410.008 45.256 411.374 45.256C414.019 45.256 415.939 45.9813 417.134 47.432C418.328 48.7973 418.926 50.3333 418.926 52.04C418.926 52.8933 418.755 54.3867 418.414 56.52C418.158 58.6533 417.731 61.1707 417.134 64.072C418.755 61.5973 420.59 59.2507 422.638 57.032C424.771 54.8133 427.118 53.0213 429.678 51.656C432.238 50.2053 435.011 49.48 437.998 49.48C442.179 49.48 445.635 50.888 448.366 53.704C451.096 56.52 452.462 60.232 452.462 64.84C452.462 68.168 451.694 71.7093 450.158 75.464C448.707 79.1333 446.616 82.632 443.886 85.96C441.155 89.2027 437.87 91.848 434.03 93.896C430.19 96.0293 425.966 97.096 421.358 97.096C418.627 97.096 416.451 96.7547 414.83 96.072C413.208 95.3893 412.398 94.6213 412.398 93.768C412.398 93.1707 412.696 92.8293 413.294 92.744C413.976 92.5733 414.702 92.488 415.47 92.488C419.48 92.4027 423.107 91.5493 426.35 89.928C429.678 88.3067 432.536 86.216 434.926 83.656C437.315 81.0107 439.15 78.1947 440.43 75.208C441.71 72.2213 442.35 69.2773 442.35 66.376C442.35 63.816 441.752 61.5973 440.558 59.72C439.448 57.8427 437.656 56.904 435.182 56.904C433.048 56.904 430.872 57.5867 428.654 58.952C426.52 60.3173 424.515 62.0667 422.638 64.2C420.76 66.248 419.096 68.424 417.646 70.728C416.195 72.9467 415.086 74.9093 414.318 76.616C412.696 82.248 411.203 87.8373 409.838 93.384C408.558 99.016 407.32 104.221 406.126 109C404.931 113.779 403.736 117.832 402.541 121.16C401.261 124.488 399.896 126.749 398.445 127.944C397.763 128.541 397.037 128.84 396.269 128.84ZM463.481 99.016C460.665 99.016 458.233 98.0773 456.184 96.2C454.051 94.3227 452.984 91.5067 452.984 87.752C452.984 84.7653 453.667 81.5227 455.032 78.024C456.398 74.5253 458.275 71.0693 460.665 67.656C463.054 64.2427 465.785 61.1707 468.857 58.44C471.929 55.624 475.214 53.3627 478.713 51.656C482.211 49.9493 485.71 49.096 489.208 49.096C492.878 49.096 495.993 50.0347 498.553 51.912C501.113 53.7893 502.393 56.264 502.393 59.336C502.393 61.64 501.582 63.304 499.961 64.328C498.339 65.352 496.419 65.6507 494.201 65.224C494.371 64.456 494.499 63.688 494.585 62.92C494.755 62.152 494.841 61.3413 494.841 60.488C494.841 58.7813 494.499 57.2453 493.817 55.88C493.134 54.5147 491.683 53.832 489.465 53.832C487.075 53.832 484.643 54.6427 482.169 56.264C479.694 57.8853 477.305 60.0187 475.001 62.664C472.782 65.224 470.777 68.0827 468.985 71.24C467.193 74.312 465.785 77.3413 464.76 80.328C463.737 83.3147 463.225 86.0027 463.225 88.392C463.225 91.1227 464.206 92.488 466.169 92.488C468.131 92.488 470.307 91.5493 472.697 89.672C475.086 87.7093 477.475 85.2773 479.865 82.376C482.339 79.4747 484.686 76.5307 486.905 73.544C489.123 70.472 491.043 67.8693 492.665 65.736C492.921 65.3093 493.262 65.096 493.689 65.096C494.03 65.1813 494.67 65.3947 495.609 65.736C496.633 65.992 497.571 66.4187 498.425 67.016C499.278 67.6133 499.705 68.3813 499.705 69.32C499.705 70.1733 499.321 71.2827 498.553 72.648C497.87 73.928 497.017 75.3787 495.993 77C495.054 78.536 494.201 80.1147 493.433 81.736C492.75 83.272 492.409 84.7653 492.409 86.216C492.409 87.3253 492.707 88.392 493.305 89.416C493.902 90.3547 494.883 90.824 496.249 90.824C498.297 90.824 501.155 89.3307 504.825 86.344C508.579 83.272 512.377 78.1093 516.217 70.856L518.649 73.288C516.601 77.896 514.126 81.992 511.225 85.576C508.409 89.0747 505.422 91.8053 502.265 93.768C499.107 95.816 495.907 96.84 492.665 96.84C489.166 96.84 486.563 95.7307 484.857 93.512C483.15 91.2933 482.211 88.904 482.041 86.344C482.041 86.1733 482.041 86.0453 482.041 85.96C482.041 85.8747 482.041 85.7893 482.041 85.704C478.627 89.8 475.47 93.0427 472.569 95.432C469.753 97.8213 466.723 99.016 463.481 99.016ZM536.868 96.328C533.71 96.328 531.15 95.4747 529.188 93.768C527.225 92.1467 526.244 89.928 526.244 87.112C526.244 84.7227 526.841 82.1627 528.036 79.432C529.23 76.7013 530.425 74.0133 531.62 71.368C532.9 68.7227 533.54 66.376 533.54 64.328C533.54 62.3653 532.9 60.744 531.62 59.464C530.34 58.0987 528.846 56.9893 527.14 56.136C525.262 60.8293 523.129 65.3947 520.74 69.832C518.436 74.184 516.558 77.5973 515.108 80.072L513.188 76.36C514.382 74.1413 515.961 70.984 517.924 66.888C519.886 62.792 521.764 58.2267 523.556 53.192C522.702 52.3387 522.276 51.1867 522.276 49.736C522.276 47.5173 522.958 45.4267 524.324 43.464C525.689 41.5013 527.012 40.52 528.292 40.52C529.316 40.52 530.041 41.1173 530.468 42.312C530.98 43.4213 531.236 44.1893 531.236 44.616C531.236 45.0427 531.022 45.8107 530.596 46.92C530.254 48.0293 529.998 48.84 529.828 49.352C529.913 50.2907 530.638 51.2293 532.003 52.168C533.454 53.0213 535.076 54.0453 536.868 55.24C538.66 56.4347 540.238 57.928 541.604 59.72C542.969 61.512 543.652 63.7733 543.652 66.504C543.652 68.9787 543.097 71.496 541.988 74.056C540.878 76.616 539.769 79.0053 538.66 81.224C537.55 83.4427 536.996 85.3627 536.996 86.984C536.996 88.1787 537.294 88.9893 537.892 89.416C538.574 89.7573 539.342 89.928 540.196 89.928C542.244 89.928 544.377 89.3307 546.596 88.136C548.814 86.856 550.99 85.2347 553.124 83.272C555.257 81.3093 557.134 79.2613 558.756 77.128C560.377 74.9093 561.614 72.904 562.468 71.112L565.54 73.416C563.918 77.0853 561.572 80.712 558.5 84.296C555.428 87.7947 552.014 90.696 548.26 93C544.505 95.2187 540.708 96.328 536.868 96.328ZM568.135 97.096C564.296 97.096 561.65 95.816 560.2 93.256C558.834 90.7813 558.151 88.0507 558.151 85.064C558.151 82.3333 558.578 79.56 559.431 76.744C560.285 73.8427 561.437 71.1547 562.888 68.68C564.424 66.2053 566.088 64.2427 567.88 62.792C569.757 61.256 571.634 60.488 573.512 60.488C574.109 60.488 574.792 60.616 575.56 60.872C576.413 61.0427 577.01 61.3413 577.352 61.768C576.328 63.048 575.261 64.6267 574.152 66.504C573.128 68.3813 572.146 70.3867 571.208 72.52C570.354 74.568 569.672 76.6587 569.16 78.792C568.648 80.9253 568.392 82.888 568.392 84.68C568.392 86.3867 568.69 87.7947 569.288 88.904C569.97 90.0133 571.122 90.568 572.744 90.568C574.365 90.568 576.285 89.672 578.503 87.88C580.808 86.0027 582.984 83.8693 585.032 81.48C582.301 79.0053 580.338 76.3173 579.144 73.416C577.949 70.4293 577.352 66.8453 577.352 62.664C577.352 60.872 577.778 58.824 578.632 56.52C579.57 54.216 581.021 52.2107 582.984 50.504C585.032 48.7973 587.762 47.944 591.176 47.944C594.845 47.944 597.405 48.968 598.856 51.016C600.392 53.064 601.16 55.496 601.16 58.312C601.16 61.4693 600.306 65.0107 598.6 68.936C596.978 72.8613 595.016 76.5733 592.712 80.072C593.736 80.584 594.93 80.84 596.296 80.84C597.576 80.84 599.112 80.5413 600.904 79.944C602.696 79.3467 604.445 78.3653 606.152 77C607.858 75.5493 609.224 73.6293 610.248 71.24L612.552 72.904C610.674 77.256 608.157 80.456 605 82.504C601.928 84.4667 598.898 85.448 595.912 85.448C594.802 85.448 593.693 85.3627 592.583 85.192C591.474 84.936 590.45 84.6373 589.512 84.296C586.61 87.7093 583.282 90.696 579.528 93.256C575.773 95.816 571.976 97.096 568.135 97.096ZM588.36 77.384C590.408 74.3973 592.157 71.1973 593.608 67.784C595.058 64.3707 595.784 61.2133 595.784 58.312C595.784 56.3493 595.485 54.9413 594.888 54.088C594.29 53.1493 593.394 52.68 592.2 52.68C590.578 52.68 588.914 53.832 587.208 56.136C585.501 58.44 584.648 61.3413 584.648 64.84C584.648 66.632 584.946 68.808 585.544 71.368C586.226 73.928 587.165 75.9333 588.36 77.384Z" fill="white"/>
</svg>
