<svg width="43" height="43" viewBox="0 0 43 43" fill="none" xmlns="http://www.w3.org/2000/svg">
<g clip-path="url(#clip0_535_176)">
<path d="M11.131 0H31.8682C32.4596 0 32.9985 0.241455 33.3869 0.629883C33.7753 1.01831 34.0168 1.55721 34.0168 2.1486V12.5312V38.3319C34.0168 38.9233 33.7753 39.4622 33.3869 39.8506C32.9985 40.239 32.4596 40.4805 31.8682 40.4805H30.157V41.4323C30.157 42.2966 29.4501 43.0035 28.5858 43.0035C27.7214 43.0035 27.0146 42.2966 27.0146 41.4323V40.4805H16.0406V41.4323C16.0406 42.2966 15.3337 43.0035 14.4694 43.0035C13.6051 43.0035 12.8982 42.2966 12.8982 41.4323V40.4805H11.131C10.5396 40.4805 10.0007 40.239 9.6123 39.8506C9.22388 39.4622 8.98242 38.9233 8.98242 38.3319V12.5312V2.1486C8.98242 1.55721 9.22388 1.01831 9.6123 0.629883C10.0007 0.241455 10.5396 0 11.131 0ZM12.5518 15.7086C12.5518 15.2397 12.9332 14.8582 13.4021 14.8582C13.871 14.8582 14.2524 15.2397 14.2524 15.7086V22.8472C14.2524 23.3162 13.871 23.6976 13.4021 23.6976C12.9332 23.6976 12.5518 23.3162 12.5518 22.8472V15.7086ZM12.5518 3.63582C12.5518 3.16691 12.9332 2.78548 13.4021 2.78548C13.871 2.78548 14.2524 3.16691 14.2524 3.63582V8.93734C14.2524 9.40625 13.871 9.78768 13.4021 9.78768C12.9332 9.78768 12.5518 9.40625 12.5518 8.93734V3.63582ZM10.6866 11.6773H32.3161V2.1486C32.3161 2.02612 32.2671 1.91414 32.1831 1.83366C32.1026 1.75317 31.9906 1.70068 31.8682 1.70068H11.131C11.0085 1.70068 10.8966 1.74967 10.8161 1.83366C10.7356 1.91414 10.6831 2.02612 10.6831 2.1486V11.6773H10.6866ZM32.3126 13.3815H10.6866V38.3284C10.6866 38.4508 10.7356 38.5628 10.8196 38.6433C10.9001 38.7238 11.012 38.7763 11.1345 38.7763H31.8682C31.9906 38.7763 32.1026 38.7273 32.1831 38.6433C32.2636 38.5628 32.3161 38.4508 32.3161 38.3284V13.3815H32.3126Z" fill="white"/>
</g>
<defs>
<clipPath id="clip0_535_176">
<rect width="43" height="43" fill="white"/>
</clipPath>
</defs>
</svg>
